<?xml version="1.0" encoding="UTF-8"?><svg id="katman_2" xmlns="http://www.w3.org/2000/svg" viewBox="0 0 121.98 106.08"><defs><style>.cls-1{letter-spacing:0em;}.cls-2,.cls-3{fill:#1e1e1c;}.cls-3{font-size:5.91px;}.cls-3,.cls-4{font-family:Arial-Black, 'Arial Black';font-weight:800;}.cls-5{letter-spacing:0em;}.cls-6{fill:#ffd405;}.cls-4{fill:#1d1d1b;font-size:13.57px;}</style></defs><g id="katman_1"><path class="cls-2" d="M60.99,82.99c-22.95-.05-41.52-18.54-41.49-41.56C19.53,18.54,38-.01,61.02,0c22.96.01,41.47,18.57,41.47,41.51,0,23.03-18.61,41.45-41.5,41.48ZM25.72,41.52c.04,19.58,15.86,35.22,35.19,35.25,19.45.03,35.29-15.71,35.3-35.23.01-19.48-15.75-35.26-35.23-35.27-19.43,0-35.22,15.7-35.26,35.25Z"/><path class="cls-2" d="M62.38,54.98h-5.06c-.08-.26-.12-29.73-.04-30.91h5.1v13.47c.1.03.12-.01.14-.05,1.17-1.48,2.69-2.32,4.54-2.61,1.25-.19,2.49-.12,3.7.25,1.49.45,2.51,1.43,3.11,2.86.36.87.55,1.78.67,2.71.17,1.41.19,2.82.2,4.24,0,4.53,0,9.05.02,13.58,0,.78.13,1.55.44,2.28.04.09.08.18.13.27.43.73,1.06.98,1.87.75.68-.19,1.24-.59,1.78-1.03.92-.75,1.7-1.64,2.38-2.61,2.01-2.92,3.53-6.07,4.45-9.49.37-1.37.63-2.75.79-4.16.12-1.12.19-2.24.18-3.37-.05-3.36-.68-6.61-1.87-9.74-1.33-3.49-3.23-6.64-5.66-9.46-4.11-4.76-9.14-8.15-15.05-10.27-.85-.3-1.71-.56-2.58-.8-.03,0-.07,0-.09-.05.2-.05.39-.02.58,0,1.28.15,2.56.33,3.83.58,2.81.55,5.54,1.39,8.15,2.57,2.34,1.06,4.53,2.38,6.54,3.99,2.75,2.19,5.02,4.8,6.82,7.82,1.8,3.03,3.03,6.28,3.71,9.73.27,1.34.45,2.7.55,4.07.1,1.4.12,2.81.03,4.21-.3,4.94-1.59,9.59-4.08,13.89-1.18,2.04-2.6,3.89-4.28,5.53-1.99,1.94-4.23,3.5-6.77,4.64-.74.33-1.51.59-2.31.73-.56.1-1.13.12-1.69,0-.95-.21-1.64-.77-2.1-1.62-.36-.66-.57-1.37-.69-2.11-.19-1.19-.21-2.4-.2-3.6.04-5.52.01-11.04.02-16.55,0-.89.03-1.78-.02-2.67-.03-.53-.16-1.03-.4-1.51-.37-.75-.94-1.25-1.75-1.5-.7-.21-1.4-.25-2.11-.1-.88.19-1.55.7-2.04,1.45-.43.67-.66,1.4-.8,2.18-.09.53-.13,1.06-.13,1.6,0,3.48,0,6.96,0,10.43v.39Z"/><path class="cls-2" d="M60.15,72.34c-.34.05-.67-.04-1-.07-2.08-.24-4.13-.62-6.15-1.19-4.19-1.18-8.04-3.04-11.46-5.76-3.81-3.03-6.69-6.79-8.67-11.23-1.05-2.35-1.79-4.78-2.22-7.32-.19-1.13-.33-2.27-.4-3.41-.08-1.14-.09-2.27-.04-3.41.18-3.88,1.04-7.61,2.63-11.16,1.14-2.55,2.61-4.88,4.43-7,1.98-2.3,4.26-4.24,6.85-5.82.94-.57,1.93-1.01,3.01-1.24.81-.18,1.63-.22,2.45,0,1.35.36,2.2,1.25,2.63,2.56.21.63.28,1.28.28,1.94,0,5.15,0,10.3,0,15.45v.42h3.34v4.28h-3.34v15.58h-5.29v-15.58h-4.73v-4.28h4.69c.08-.12.05-.22.05-.32,0-3.61-.01-7.22-.02-10.84,0-.7-.23-1.31-.7-1.83-.52-.57-1.15-.72-1.88-.47-.58.2-1.05.57-1.49.99-.63.6-1.16,1.3-1.64,2.02-1.92,2.88-3.49,5.94-4.55,9.25-.51,1.6-.89,3.23-1.13,4.9-.26,1.76-.33,3.53-.23,5.3.2,3.62,1.13,7.05,2.7,10.32,1.24,2.57,2.82,4.92,4.69,7.08,2.47,2.84,5.33,5.22,8.55,7.16,2.61,1.58,5.38,2.79,8.34,3.57.09.02.17.05.26.07.02,0,.03.03.05.05Z"/><path class="cls-6" d="M25.72,41.52c.04-19.54,15.83-35.25,35.26-35.25,19.48,0,35.24,15.79,35.23,35.27-.01,19.52-15.85,35.26-35.3,35.23-19.33-.03-35.15-15.67-35.19-35.25ZM62.38,54.98v-.39c0-3.48,0-6.96,0-10.43,0-.54.04-1.07.13-1.6.14-.77.37-1.51.8-2.18.49-.75,1.15-1.26,2.04-1.45.71-.15,1.42-.11,2.11.1.8.24,1.38.75,1.75,1.5.23.47.37.98.4,1.51.05.89.02,1.78.02,2.67,0,5.52.02,11.04-.02,16.55,0,1.2,0,2.41.2,3.6.12.74.33,1.45.69,2.11.46.84,1.15,1.41,2.1,1.62.56.12,1.13.1,1.69,0,.8-.14,1.57-.4,2.31-.73,2.54-1.13,4.78-2.7,6.77-4.64,1.68-1.65,3.1-3.5,4.28-5.53,2.49-4.3,3.78-8.95,4.08-13.89.09-1.4.07-2.81-.03-4.21-.1-1.37-.28-2.72-.55-4.07-.69-3.45-1.91-6.7-3.71-9.73-1.8-3.02-4.07-5.62-6.82-7.82-2.01-1.61-4.2-2.93-6.54-3.99-2.61-1.19-5.34-2.02-8.15-2.57-1.27-.25-2.54-.43-3.83-.58-.19-.02-.39-.05-.58,0,.02.05.06.05.09.05.87.24,1.73.5,2.58.8,5.91,2.12,10.95,5.51,15.05,10.27,2.44,2.82,4.34,5.97,5.66,9.46,1.19,3.14,1.82,6.39,1.87,9.74.02,1.13-.06,2.25-.18,3.37-.15,1.41-.42,2.79-.79,4.16-.92,3.43-2.44,6.58-4.45,9.49-.67.98-1.46,1.86-2.38,2.61-.54.44-1.1.83-1.78,1.03-.81.23-1.44-.02-1.87-.75-.05-.09-.09-.18-.13-.27-.32-.73-.44-1.5-.44-2.28-.02-4.53-.02-9.05-.02-13.58,0-1.42-.02-2.83-.2-4.24-.11-.93-.3-1.84-.67-2.71-.6-1.43-1.62-2.41-3.11-2.86-1.21-.37-2.45-.44-3.7-.25-1.85.29-3.38,1.13-4.54,2.61-.03.03-.04.08-.14.05v-13.47h-5.1c-.08,1.18-.04,30.65.04,30.91h5.06ZM60.15,72.34s-.03-.05-.05-.05c-.08-.03-.17-.05-.26-.07-2.96-.78-5.73-2-8.34-3.57-3.22-1.94-6.08-4.32-8.55-7.16-1.87-2.15-3.45-4.5-4.69-7.08-1.57-3.26-2.5-6.7-2.7-10.32-.1-1.77-.03-3.54.23-5.3.24-1.67.62-3.3,1.13-4.9,1.06-3.31,2.63-6.36,4.55-9.25.48-.72,1.01-1.42,1.64-2.02.44-.42.91-.78,1.49-.99.73-.25,1.36-.1,1.88.47.47.51.7,1.13.7,1.83,0,3.61.01,7.22.02,10.84,0,.1.03.2-.05.32h-4.69v4.28h4.73v15.58h5.29v-15.58h3.34v-4.28h-3.34v-.42c0-5.15,0-10.3,0-15.45,0-.66-.07-1.31-.28-1.94-.43-1.31-1.28-2.19-2.63-2.56-.81-.22-1.63-.17-2.45,0-1.08.23-2.07.67-3.01,1.24-2.59,1.58-4.87,3.52-6.85,5.82-1.82,2.12-3.29,4.45-4.43,7-1.59,3.55-2.45,7.28-2.63,11.16-.05,1.13-.04,2.27.04,3.41.08,1.14.21,2.28.4,3.41.43,2.53,1.17,4.97,2.22,7.32,1.98,4.45,4.87,8.2,8.67,11.23,3.41,2.72,7.26,4.59,11.46,5.76,2.02.57,4.07.95,6.15,1.19.33.04.66.12,1,.07Z"/><text class="cls-3" transform="translate(46.7 59.91)"><tspan x="0" y="0">1992</tspan></text><text class="cls-4" transform="translate(0 101.92)"><tspan x="0" y="0">TUZLA HO</tspan><tspan class="cls-5" x="77.64" y="0">R</tspan><tspan class="cls-1" x="88.07" y="0">TUM</tspan></text></g></svg>